Coordinates
version=1
nRows=16
nColumns=40
inDegrees=yes

Units are S.I. units (second, meters, Newtons, ...)
Angles are in degrees.

endheader
time	pelvis_tilt	pelvis_list	pelvis_rotation	pelvis_tx	pelvis_ty	pelvis_tz	hip_flexion_r	hip_adduction_r	hip_rotation_r	knee_angle_r	knee_angle_r_beta	ankle_angle_r	subtalar_angle_r	mtp_angle_r	hip_flexion_l	hip_adduction_l	hip_rotation_l	knee_angle_l	knee_angle_l_beta	ankle_angle_l	subtalar_angle_l	mtp_angle_l	lumbar_extension	lumbar_bending	lumbar_rotation	arm_flex_r	arm_add_r	arm_rot_r	elbow_flex_r	pro_sup_r	wrist_flex_r	wrist_dev_r	arm_flex_l	arm_add_l	arm_rot_l	elbow_flex_l	pro_sup_l	wrist_flex_l	wrist_dev_l
      0.64000000	     -1.91788479	     -2.21676918	     11.39079423	     -0.65279698	      0.88338988	     -1.48421091	     25.20995125	     -2.83159026	    -21.86017118	    -21.46828623	     -0.37469228	      1.87037844	     -9.41454709	      8.57874834	     -1.94556914	      6.12167878	      7.18109734	    -31.70351443	     -0.55333071	     10.98347996	     -0.82991635	     -5.70764682	     -2.24429950	      0.18634083	    -10.89398732	     -4.27511729	     -6.04175707	    -17.18241765	     20.54116485	     89.95437384	      0.00000000	      0.00000000	      4.60016702	     13.61882378	     19.02753104	     47.05218709	     89.95437384	      0.00000000	      0.00000000
      0.65000000	     -1.88822234	     -2.37207766	     11.24583804	     -0.64385826	      0.88322997	     -1.48266444	     25.13730803	     -2.57987849	    -21.67319087	    -22.31797531	     -0.38952215	      1.41274484	     -9.19954881	      8.32015030	     -2.07461715	      6.43014242	      6.67461000	    -32.46805175	     -0.56667440	     10.20150000	     -0.40156786	     -5.58792963	     -2.03865613	      0.40529999	    -10.80810357	     -4.24426577	     -6.10192003	    -17.07598293	     20.35818775	     89.95437384	      0.00000000	      0.00000000	      4.22931292	     13.44120092	     19.22960504	     46.55503384	     89.95437384	      0.00000000	      0.00000000
      0.66000000	     -1.98640609	     -2.26255596	     11.02202418	     -0.63446880	      0.88309005	     -1.48104706	     24.98254053	     -2.53979468	    -21.22049994	    -22.89880217	     -0.39965949	      1.18936248	     -8.83870109	      8.11724674	     -2.20443361	      6.40824268	      6.23556394	    -33.10834973	     -0.57784971	      9.72537641	     -0.32021211	     -5.45174781	     -1.70576673	      0.27198356	    -10.61860308	     -4.52291543	     -6.09356754	    -17.00012240	     20.63672856	     89.95437384	      0.00000000	      0.00000000	      3.59939924	     13.36967040	     19.22748534	     46.37698818	     89.95437384	      0.00000000	      0.00000000
      0.67000000	     -1.76662619	     -2.82246202	     10.95498220	     -0.62588020	      0.88346220	     -1.47934376	     24.65800662	     -1.78999094	    -21.22003637	    -23.55299711	     -0.41107735	      0.84628430	     -8.97646477	      7.87612465	     -1.98678435	      7.19274336	      5.59407585	    -34.63347020	     -0.60446809	      8.29324097	      1.39189630	     -5.18139061	     -1.69404531	      0.97190655	    -10.71596084	     -4.07869821	     -6.22681592	    -16.91094161	     19.99185307	     89.95437384	      0.00000000	      0.00000000	      3.29559373	     13.02645159	     19.86101854	     45.69771736	     89.95437384	      0.00000000	      0.00000000
      0.68000000	     -1.69854033	     -3.03047018	     10.80814094	     -0.61694488	      0.88384022	     -1.47767275	     24.27624592	     -1.30654714	    -20.77763130	    -23.89779903	     -0.41709528	      0.67083568	     -9.35585306	      7.64499504	     -1.82724154	      7.49901503	      4.84924523	    -35.89642289	     -0.62651077	      7.29346624	      2.43514287	     -5.03728036	     -1.56752346	      1.23622759	    -10.70951788	     -3.99469032	     -6.27671082	    -16.83262787	     19.96110056	     89.95437384	      0.00000000	      0.00000000	      2.74309773	     12.82717649	     20.18772609	     45.33486696	     89.95437384	      0.00000000	      0.00000000
      0.69000000	     -1.55630343	     -2.98287944	     10.49930793	     -0.60801784	      0.88438619	     -1.47591313	     23.83802325	     -1.10181599	    -20.36940374	    -24.44620884	     -0.42666683	      0.79568857	     -9.24831831	      7.41090151	     -1.73579241	      7.54338343	      4.38025705	    -37.24500821	     -0.65004802	      6.00830121	      2.97855405	     -4.79954908	     -1.57727183	      1.22305526	    -10.41071571	     -3.97261687	     -6.32225053	    -16.70022168	     19.99317933	     89.95437384	      0.00000000	      0.00000000	      2.30307442	     12.66134219	     20.29098420	     44.91091042	     89.95437384	      0.00000000	      0.00000000
      0.70000000	     -1.46120505	     -3.24480654	     10.27136441	     -0.59892443	      0.88500878	     -1.47397255	     23.28658090	     -0.46366348	    -19.99656806	    -24.60281547	     -0.42940014	      1.22372822	     -9.33343141	      7.18363401	     -1.37947796	      7.99439683	      3.98382490	    -38.78658327	     -0.67695358	      4.23485345	      4.24428730	     -4.45351388	     -1.43725720	      1.52576253	    -10.30036374	     -3.85300739	     -6.35985020	    -16.73349565	     19.87286004	     89.95437384	      0.00000000	      0.00000000	      1.77264007	     12.45424565	     20.59059623	     44.37625285	     89.95437384	      0.00000000	      0.00000000
      0.71000000	     -1.35946712	     -3.34857160	      9.99377473	     -0.59023455	      0.88564146	     -1.47190472	     22.73715842	      0.02549654	    -19.59319606	    -24.76044705	     -0.43215133	      1.52131744	     -9.28350957	      6.97763119	     -0.88299029	      8.23831780	      3.57867156	    -40.47432651	     -0.70641026	      2.28093789	      5.07053810	     -4.09317928	     -1.41785826	      1.64009598	    -10.06305943	     -3.76135768	     -6.37631965	    -16.66958826	     19.93187709	     89.95437384	      0.00000000	      0.00000000	      1.33121116	     12.31520919	     20.73650596	     43.86921940	     89.95437384	      0.00000000	      0.00000000
      0.72000000	     -1.31977502	     -3.54804411	      9.68456282	     -0.58181799	      0.88618150	     -1.46993260	     22.20392659	      0.62270746	    -19.20901525	    -24.74232510	     -0.43183504	      1.67051720	     -9.31729033	      6.80216589	     -0.12499049	      8.56106753	      3.19667563	    -42.40790211	     -0.74015752	      0.17707049	      5.92272382	     -3.64952207	     -1.34688341	      1.87279800	     -9.84514558	     -3.67120413	     -6.41438080	    -16.70357832	     20.10057061	     89.95437384	      0.00000000	      0.00000000	      0.84642023	     12.12735640	     20.92735442	     43.39528622	     89.95437384	      0.00000000	      0.00000000
      0.73000000	     -1.21459055	     -3.60662919	      9.37475992	     -0.57362293	      0.88677942	     -1.46791038	     21.59253105	      1.02032086	    -19.03580238	    -24.80570607	     -0.43294124	      2.14290482	     -9.16373580	      6.58494082	      0.62668429	      8.74469909	      2.82815034	    -44.36678864	     -0.77434654	     -2.19847948	      6.64628865	     -3.20512013	     -1.41360382	      1.95360757	     -9.51492340	     -3.55769984	     -6.45408187	    -16.58279407	     20.29776639	     89.95437384	      0.00000000	      0.00000000	      0.50855750	     11.94717922	     21.06464839	     42.83940952	     89.95437384	      0.00000000	      0.00000000
      0.74000000	     -1.12912733	     -3.68044275	      9.08507422	     -0.56561385	      0.88723927	     -1.46594159	     20.97474361	      1.42011614	    -18.90928426	    -24.81994006	     -0.43318967	      2.61044153	     -8.92478861	      6.35768200	      1.53040230	      8.94559457	      2.47100078	    -46.43609818	     -0.81046281	     -4.76457955	      7.54386975	     -2.72885216	     -1.47983548	      2.05401340	     -9.25439887	     -3.44878300	     -6.48475495	    -16.45062123	     20.60114942	     89.95437384	      0.00000000	      0.00000000	      0.12562979	     11.82358006	     21.09335877	     42.29195606	     89.95437384	      0.00000000	      0.00000000
      0.75000000	     -1.02293717	     -3.59502900	      8.64768749	     -0.55790907	      0.88771110	     -1.46406454	     20.33351298	      1.61851533	    -18.82360967	    -24.83932733	     -0.43352805	      2.95368570	     -8.63375760	      6.14562884	      2.33341100	      8.78557777	      1.89363316	    -48.39461613	     -0.84464539	     -6.64687445	      7.88062274	     -2.41386714	     -1.68287120	      2.00475741	     -8.68515736	     -3.36467211	     -6.56875592	    -16.24637073	     20.91354466	     89.95437384	      0.00000000	      0.00000000	     -0.17615485	     11.63655657	     21.11921182	     41.93018645	     89.95437384	      0.00000000	      0.00000000
      0.76000000	     -1.07738369	     -3.97372297	      8.60081102	     -0.55025338	      0.88782324	     -1.46231025	     19.79852928	      2.26147266	    -18.99844874	    -24.61707495	     -0.42964901	      3.57828733	     -8.32084885	      5.90978069	      3.68755234	      9.23804556	      1.21783229	    -50.49939505	     -0.88138071	     -9.38637550	      8.84329130	     -1.89575541	     -1.54027816	      2.42247007	     -8.67474950	     -3.21570495	     -6.66673461	    -16.01173638	     21.26083985	     89.95437384	      0.00000000	      0.00000000	     -0.48715029	     11.46422643	     21.18201990	     41.15368986	     89.95437384	      0.00000000	      0.00000000
      0.77000000	     -1.12234061	     -4.16271006	      8.41981933	     -0.54304198	      0.88784085	     -1.46068858	     19.31922802	      2.66812442	    -19.12980610	    -24.52677597	     -0.42807300	      4.01967741	     -7.94947381	      5.66967157	      5.02919574	      9.34248509	      0.50015840	    -52.73838654	     -0.92045849	    -10.74765044	      9.37081258	     -1.59445067	     -1.53192040	      2.64957590	     -8.45610722	     -3.05796420	     -6.79484986	    -15.70494419	     21.63787626	     89.95437384	      0.00000000	      0.00000000	     -0.74981875	     11.28325544	     21.18392055	     40.55398856	     89.95437384	      0.00000000	      0.00000000
      0.78000000	     -1.34117983	     -4.32056323	      8.26028699	     -0.53610991	      0.88745995	     -1.45916813	     19.12248886	      2.94554920	    -19.34592231	    -24.62204386	     -0.42973573	      4.39807392	     -7.39730065	      5.33737917	      6.66537523	      9.37192374	     -0.07806119	    -55.03001046	     -0.96045487	    -11.84952169	      9.57433396	     -1.16191239	     -1.36894687	      2.81632572	     -8.27219480	     -2.91468651	     -6.97446063	    -15.13971150	     22.09175036	     89.95437384	      0.00000000	      0.00000000	     -1.04096659	     11.09726447	     21.21218924	     39.98389022	     89.95437384	      0.00000000	      0.00000000
      0.79000000	     -1.11441635	     -4.33889021	      8.05535928	     -0.52882004	      0.88788201	     -1.45779510	     18.29138912	      3.23270159	    -19.24304171	    -24.50935266	     -0.42776890	      5.01227757	     -7.06556402	      5.10149974	      7.64461261	      9.36079214	     -0.38923099	    -57.06175950	     -0.99591558	    -12.51679941	     10.14270455	     -0.94539787	     -1.69778648	      2.91287833	     -7.97764364	     -2.61884075	     -7.10139382	    -14.99739565	     22.32802006	     89.95437384	      0.00000000	      0.00000000	     -1.19797808	     10.90646776	     21.18936114	     39.26968463	     89.95437384	      0.00000000	      0.00000000
